<?xml version="1.0" encoding="utf-8"?>
<!-- Generator: Adobe Illustrator 27.3.1, SVG Export Plug-In . SVG Version: 6.00 Build 0)  -->
<svg version="1.1" id="Layer_1" xmlns="http://www.w3.org/2000/svg" xmlns:xlink="http://www.w3.org/1999/xlink" x="0px" y="0px"
	 viewBox="0 0 1366 768" style="enable-background:new 0 0 1366 768;" xml:space="preserve">
<style type="text/css">
	.st0{fill:none;stroke:#57665A;stroke-width:0.75;stroke-miterlimit:10;}
	.st1{fill:none;stroke:#5C6457;stroke-width:0.8571;stroke-miterlimit:10;}
	.st2{fill:none;stroke:#606255;stroke-width:0.9643;stroke-miterlimit:10;}
	.st3{fill:none;stroke:#656152;stroke-width:1.0714;stroke-miterlimit:10;}
	.st4{fill:none;stroke:#695F4F;stroke-width:1.1786;stroke-miterlimit:10;}
	.st5{fill:none;stroke:#6E5D4D;stroke-width:1.2857;stroke-miterlimit:10;}
	.st6{fill:none;stroke:#735B4A;stroke-width:1.3929;stroke-miterlimit:10;}
	.st7{fill:none;stroke:#775A47;stroke-width:1.5;stroke-miterlimit:10;}
	.st8{fill:none;stroke:#7C5845;stroke-width:1.6071;stroke-miterlimit:10;}
	.st9{fill:none;stroke:#815642;stroke-width:1.7143;stroke-miterlimit:10;}
	.st10{fill:none;stroke:#85543F;stroke-width:1.8214;stroke-miterlimit:10;}
	.st11{fill:none;stroke:#8A533D;stroke-width:1.9286;stroke-miterlimit:10;}
	.st12{fill:none;stroke:#8E513A;stroke-width:2.0357;stroke-miterlimit:10;}
	.st13{fill:none;stroke:#934F37;stroke-width:2.1429;stroke-miterlimit:10;}
	.st14{fill:none;stroke:#984D35;stroke-width:2.25;stroke-miterlimit:10;}
	.st15{fill:none;stroke:#9C4C32;stroke-width:2.3571;stroke-miterlimit:10;}
	.st16{fill:none;stroke:#A14A2F;stroke-width:2.4643;stroke-miterlimit:10;}
	.st17{fill:none;stroke:#A6482D;stroke-width:2.5714;stroke-miterlimit:10;}
	.st18{fill:none;stroke:#AA462A;stroke-width:2.6786;stroke-miterlimit:10;}
	.st19{fill:none;stroke:#AF4527;stroke-width:2.7857;stroke-miterlimit:10;}
	.st20{fill:none;stroke:#B34325;stroke-width:2.8929;stroke-miterlimit:10;}
	.st21{fill:none;stroke:#B84122;stroke-width:3;stroke-miterlimit:10;}
</style>
<g>
	<path class="st0" d="M1109.93,467.58c0.02-0.03,0.01-0.1,0.02-0.12c0.01-0.02,0.03-0.02,0.05-0.02c0.08,0.02,0.11-0.08,0.11-0.08
		l-0.18,0c0,0,0.04-0.03-0.05-0.11c-0.02-0.02-0.03-0.03-0.04-0.04c-0.03-0.04-0.04-0.09-0.03-0.14c0.02-0.07-0.04-0.13-0.04-0.13
		c-0.17-0.24-0.17-0.3-0.16-0.32c0.01-0.01,0.01-0.02,0.02-0.03c0.05-0.11-0.02-0.16-0.02-0.16l0.08-0.1
		c-0.05-0.06-0.23-0.12-0.24-0.19c-0.03-0.37-0.24-0.68-0.29-0.68c-0.02,0-0.05-0.02-0.09-0.05c-0.12-0.1-0.21-0.22-0.28-0.36
		c-0.15-0.3-0.48-0.91-0.79-0.99c-0.01,0-0.09-0.03-0.1-0.03c-0.3-0.07-0.58,0.14-0.61,0.46c-0.03,0.28,0.1,0.59,0.12,0.64
		c0.12,0.44,0.21,0.71,0.25,0.83c0.02,0.05,0.01,0.1-0.02,0.13c-0.16,0.19-0.35,0.57-0.35,0.63c0,0.03,0,0.05,0,0.08
		c-0.01,0.19-0.03,0.82-0.04,0.97c-0.01,0.24,0.21,0.54,0.26,0.59s0.25,0.1,0.25,0.1S1109.25,468.62,1109.93,467.58z"/>
	<path class="st1" d="M1115.05,466.25c-0.06-0.32-0.11-0.78,0.05-0.87c0.09-0.05,0.15-0.25,0.18-0.49c0.06-0.44-0.02-0.89-0.23-1.29
		c-0.18-0.34-0.33-0.82-0.09-1.13c0.16-0.2,0.11-0.63-0.01-1.05c-0.16-0.58-1.06-1.02-1.43-1.31c-0.23,0.06-2.69-1.18-0.84-3.15
		c0.08-0.09,0.19-0.16,0.3-0.25c1.77-1.42-0.6-2.46-1.94-3.3c-0.3-0.19-0.58-0.35-0.74-0.52c-0.3-0.04-0.43,0.03-0.51-0.27
		c0-0.01-0.01-0.01-0.01-0.02c-0.06-0.13-0.15,0.09-0.41-0.21c-0.13,0.02-0.07,0.08-0.23-0.11c-0.24-0.28-0.36-0.5-0.68-0.69
		c-3.42-2.07-6.5,3.17-4.49,5.01c0.2,0.18,0.29,0.39,0.44,0.6c0.06,0.09,0.14,0.19,0.21,0.29c0.24,0.36,0.42,0.58,0.54,0.9
		c0.16,0.41,0.1,0.79,0.18,1.16c0.07,0.32,0.13,0.58,0.09,0.78c-0.02,0.12-0.02,0.25-0.03,0.36c-0.04,0.35-0.12,0.63-0.24,0.84
		c-0.14,0.26-0.45,0.45-0.77,0.45c-0.4,0.01-0.86-0.22-1.34-0.62c-0.31-0.26-0.58-0.21-0.86,0c-0.05,0.04-0.1,0.09-0.16,0.14
		c-0.22,0.19-0.56,0.54-0.78,0.94c-0.17,0.3-0.23,0.5-0.34,0.73c-0.6,1.27-1.18,2.31-1.38,3.2c-1.32,5.7,4.08,4.66,4.03,4.66
		c-0.01,0,1.31-0.1,2.55-0.54c1.06-0.38,2.06-1,2.12-2.04c0.07-1.29,1.05-0.77,1.77-0.23c0.4,0.3,0.75,0.66,1.06,1.05
		c0.55,0.69,2.1,2.25,4.04,0.91c0.35-0.24,0.52-0.75,0.58-1.28c0.02-0.22,0.02-0.43-0.1-0.55c-0.29-0.29-0.26-0.8-0.19-1.05
		c0.05-0.17-0.05-0.46-0.14-0.63c-0.02-0.04-0.04-0.07-0.06-0.11C1115.16,466.48,1115.07,466.35,1115.05,466.25z"/>
	<path class="st2" d="M1122.21,468.49c-0.09-0.62-0.15-1.56,0.21-1.72c0.2-0.09,0.34-0.51,0.44-0.99c0.17-0.88,0.06-1.8-0.31-2.63
		c-0.31-0.71-0.57-1.69-0.06-2.34c0.34-0.44,0.28-1.32,0.07-2.21c-0.29-1.22-2.04-2.19-2.78-2.86c-0.43-0.16-5.25-2.74-1.8-6.94
		c0.16-0.2,0.36-0.38,0.57-0.59c3.39-3.26-1.4-5.52-4.11-7.33c-0.63-0.42-1.1-0.86-1.47-1.18c-0.39-0.34-0.58-0.5-0.67-1.18
		c0-0.04-0.01-0.08-0.02-0.12c-0.09-0.46-0.17-0.73-0.79-1.4c-0.22-0.24-0.36-0.38-0.73-0.81c-0.54-0.62-0.98-1.1-1.62-1.48
		c-6.83-4.13-14.7,6.52-11.14,10.9c0.35,0.43,0.58,0.88,0.86,1.32c0.12,0.2,0.25,0.4,0.37,0.6c0.4,0.69,0.72,1.24,0.97,1.87
		c0.31,0.82,0.38,1.59,0.55,2.32c0.14,0.64,0.24,1.21,0.22,1.68c-0.01,0.27-0.01,0.52-0.02,0.77c-0.06,0.74-0.21,1.35-0.45,1.82
		c-0.31,0.6-0.86,0.99-1.5,1.04c-0.73,0.05-1.6-0.29-2.55-1.03c-0.58-0.45-1.13-0.32-1.68,0.12c-0.11,0.09-0.22,0.19-0.33,0.3
		c-0.5,0.48-1.1,1.24-1.53,2.04c-0.33,0.61-0.54,1.11-0.75,1.57c-1.19,2.59-2.12,4.75-2.52,6.58c-2.58,11.78,8.4,9.99,8.36,9.99
		c-0.01,0,2.66-0.17,5.18-1.03c2.15-0.73,4.18-1.95,4.32-3.99c0.18-2.56,2.14-1.5,3.6-0.39c0.81,0.62,1.53,1.35,2.16,2.15
		c1.13,1.42,4.1,4.33,8.17,1.98c0.72-0.41,1.19-1.22,1.4-2.13c0.09-0.39,0.11-0.75-0.09-0.94c-0.5-0.47-0.37-1.39-0.13-1.82
		c0.16-0.29,0.02-0.83-0.11-1.15c-0.03-0.07-0.06-0.14-0.08-0.21C1122.34,468.91,1122.24,468.69,1122.21,468.49z"/>
	<path class="st3" d="M1129.37,470.72c-0.11-0.93-0.18-2.33,0.37-2.57c0.31-0.14,0.54-0.76,0.69-1.48c0.27-1.32,0.13-2.71-0.39-3.97
		c-0.45-1.07-0.82-2.56-0.03-3.55c0.53-0.67,0.45-2.01,0.15-3.36c-0.41-1.87-2.93-3.49-4.13-4.4c-0.58-0.44-7.83-4.32-2.76-10.73
		c0.24-0.31,0.54-0.61,0.85-0.93c5.02-5.1-2.2-8.58-6.28-11.36c-0.95-0.65-1.69-1.29-2.19-1.83c-0.53-0.56-0.71-1.03-0.83-2.08
		c-0.01-0.07-0.02-0.14-0.03-0.21c-0.13-0.79-0.31-1.44-1.16-2.58c-0.33-0.45-0.65-0.84-1.23-1.5c-0.83-0.95-1.59-1.69-2.55-2.28
		c-10.25-6.2-22.93,9.84-17.79,16.78c0.5,0.68,0.87,1.36,1.27,2.05c0.18,0.3,0.35,0.61,0.53,0.92c0.57,1.02,1.03,1.91,1.39,2.85
		c0.47,1.22,0.67,2.39,0.91,3.47c0.21,0.95,0.36,1.83,0.35,2.58c0,0.41,0.01,0.8-0.01,1.17c-0.07,1.14-0.29,2.08-0.65,2.8
		c-0.47,0.93-1.27,1.53-2.23,1.62c-1.06,0.1-2.34-0.37-3.75-1.45c-0.84-0.64-1.68-0.43-2.51,0.24c-0.17,0.14-0.34,0.29-0.51,0.46
		c-0.78,0.77-1.63,1.95-2.29,3.14c-0.5,0.91-0.85,1.72-1.17,2.41c-1.77,3.9-3.06,7.19-3.67,9.97
		c-3.85,17.85,12.72,15.33,12.68,15.33c-0.01,0,4.02-0.25,7.81-1.51c3.24-1.08,6.31-2.9,6.53-5.95c0.29-3.82,3.24-2.23,5.43-0.55
		c1.22,0.94,2.3,2.04,3.26,3.24c1.71,2.16,6.1,6.4,12.3,3.05c1.08-0.59,1.86-1.69,2.21-2.98c0.15-0.55,0.2-1.07-0.08-1.33
		c-0.71-0.66-0.47-1.98-0.08-2.59c0.27-0.41,0.09-1.2-0.08-1.67c-0.04-0.11-0.07-0.21-0.1-0.31
		C1129.52,471.33,1129.41,471.02,1129.37,470.72z"/>
	<path class="st4" d="M1136.53,472.95c-0.14-1.24-0.22-3.1,0.53-3.43c0.43-0.19,0.73-1.02,0.94-1.98c0.38-1.77,0.21-3.62-0.48-5.31
		c-0.59-1.43-1.06-3.43,0-4.75c0.72-0.9,0.61-2.7,0.23-4.52c-0.54-2.51-3.92-4.64-5.47-5.95c-0.78-0.65-10.4-5.91-3.72-14.52
		c0.32-0.42,0.71-0.83,1.12-1.27c6.64-6.94-3-11.64-8.44-15.39c-1.27-0.88-2.27-1.74-2.91-2.48c-0.67-0.79-0.83-1.57-0.99-2.98
		c-0.01-0.1-0.03-0.2-0.04-0.31c-0.17-1.12-0.44-2.17-1.53-3.76c-0.45-0.66-0.94-1.29-1.73-2.2c-1.12-1.29-2.2-2.29-3.49-3.07
		c-13.66-8.26-31.16,13.15-24.45,22.67c0.65,0.92,1.17,1.85,1.69,2.77c0.23,0.41,0.46,0.81,0.69,1.23c0.73,1.35,1.34,2.57,1.82,3.82
		c0.63,1.63,0.95,3.18,1.27,4.63c0.28,1.27,0.47,2.44,0.49,3.47c0.01,0.55,0.02,1.08-0.01,1.58c-0.08,1.53-0.38,2.8-0.86,3.78
		c-0.63,1.27-1.68,2.07-2.97,2.2c-1.39,0.15-3.08-0.45-4.96-1.87c-1.1-0.83-2.23-0.54-3.33,0.36c-0.23,0.19-0.46,0.4-0.69,0.63
		c-1.06,1.06-2.17,2.65-3.04,4.24c-0.67,1.21-1.17,2.32-1.58,3.25c-2.35,5.22-4,9.62-4.81,13.36c-5.13,23.92,17.04,20.67,17,20.67
		c-0.01,0,5.38-0.32,10.45-2c4.33-1.43,8.43-3.85,8.73-7.91c0.39-5.09,4.33-2.96,7.26-0.7c1.63,1.25,3.08,2.73,4.36,4.34
		c2.29,2.89,8.1,8.47,16.43,4.11c1.45-0.76,2.53-2.16,3.03-3.82c0.21-0.72,0.29-1.39-0.07-1.71c-0.93-0.84-0.58-2.58-0.02-3.36
		c0.38-0.53,0.15-1.57-0.05-2.19c-0.05-0.14-0.09-0.28-0.13-0.42C1136.7,473.76,1136.57,473.35,1136.53,472.95z"/>
	<path class="st5" d="M1143.69,475.19c-0.17-1.54-0.25-3.87,0.69-4.28c0.54-0.23,0.92-1.27,1.19-2.47c0.48-2.21,0.29-4.53-0.56-6.64
		c-0.73-1.8-1.3-4.3,0.02-5.96c0.91-1.13,0.78-3.39,0.31-5.67c-0.67-3.16-4.91-5.8-6.82-7.5c-0.98-0.87-12.98-7.49-4.68-18.32
		c0.41-0.53,0.88-1.06,1.39-1.61c8.26-8.78-3.8-14.69-10.61-19.43c-1.59-1.11-2.86-2.18-3.63-3.14c-0.81-1.01-0.96-2.11-1.15-3.88
		c-0.01-0.13-0.03-0.27-0.05-0.41c-0.2-1.45-0.57-2.89-1.91-4.95c-0.58-0.88-1.22-1.75-2.23-2.9c-1.42-1.63-2.81-2.89-4.42-3.86
		c-17.08-10.33-39.4,16.45-31.1,28.55c0.8,1.17,1.46,2.33,2.11,3.49c0.29,0.51,0.57,1.02,0.85,1.54c0.9,1.69,1.65,3.23,2.25,4.8
		c0.78,2.04,1.23,3.98,1.64,5.79c0.35,1.59,0.58,3.06,0.62,4.37c0.02,0.69,0.03,1.35,0,1.98c-0.09,1.92-0.46,3.53-1.07,4.76
		c-0.8,1.6-2.09,2.61-3.7,2.79c-1.72,0.19-3.82-0.53-6.17-2.28c-1.36-1.02-2.77-0.64-4.15,0.47c-0.29,0.23-0.57,0.5-0.86,0.79
		c-1.34,1.35-2.71,3.35-3.8,5.34c-0.83,1.52-1.48,2.93-2,4.09c-2.94,6.53-4.95,12.06-5.95,16.75c-6.4,30,21.36,26,21.33,26
		c-0.01,0,6.73-0.4,13.08-2.49c5.42-1.78,10.56-4.8,10.94-9.87c0.49-6.36,5.43-3.69,9.09-0.86c2.04,1.57,3.86,3.42,5.46,5.44
		c2.87,3.63,10.1,10.53,20.56,5.18c1.82-0.93,3.21-2.63,3.84-4.67c0.28-0.89,0.37-1.71-0.06-2.1c-1.14-1.02-0.68-3.17,0.03-4.13
		c0.49-0.65,0.22-1.94-0.02-2.71c-0.05-0.17-0.11-0.34-0.15-0.52C1143.88,476.19,1143.74,475.68,1143.69,475.19z"/>
	<path class="st6" d="M1150.85,477.42c-0.2-1.85-0.29-4.64,0.85-5.13c0.65-0.28,1.11-1.52,1.44-2.97c0.59-2.66,0.37-5.44-0.64-7.98
		c-0.86-2.16-1.55-5.17,0.05-7.17c1.09-1.37,0.95-4.08,0.38-6.83c-0.79-3.8-5.9-6.96-8.17-9.04c-1.18-1.08-15.55-9.07-5.64-22.11
		c0.49-0.64,1.05-1.28,1.67-1.95c9.89-10.62-4.61-17.74-12.78-23.46c-1.92-1.33-3.45-2.62-4.35-3.79c-0.96-1.24-1.08-2.64-1.31-4.78
		c-0.02-0.16-0.04-0.33-0.06-0.5c-0.24-1.78-0.69-3.63-2.28-6.13c-0.7-1.1-1.51-2.21-2.72-3.6c-1.71-1.96-3.43-3.49-5.35-4.65
		c-20.49-12.39-47.64,19.75-37.76,34.44c0.95,1.41,1.75,2.82,2.53,4.21c0.34,0.62,0.68,1.23,1.01,1.85
		c1.06,2.02,1.95,3.89,2.68,5.77c0.94,2.45,1.51,4.77,2,6.95c0.43,1.91,0.7,3.68,0.76,5.27c0.03,0.83,0.04,1.63,0.01,2.39
		c-0.1,2.31-0.54,4.25-1.28,5.74c-0.96,1.94-2.5,3.15-4.43,3.37c-2.05,0.24-4.56-0.61-7.38-2.7c-1.62-1.21-3.32-0.76-4.98,0.59
		c-0.35,0.28-0.69,0.6-1.04,0.95c-1.62,1.64-3.24,4.05-4.56,6.44c-1,1.82-1.79,3.53-2.42,4.92c-3.52,7.85-5.89,14.49-7.09,20.14
		c-7.68,36.07,25.68,31.34,25.65,31.34c-0.01,0,8.09-0.47,15.71-2.97c6.51-2.14,12.68-5.75,13.15-11.82
		c0.59-7.62,6.52-4.41,10.93-1.02c2.45,1.89,4.63,4.1,6.56,6.53c3.46,4.37,12.1,12.6,24.69,6.25c2.19-1.11,3.88-3.1,4.66-5.52
		c0.34-1.05,0.46-2.03-0.05-2.49c-1.36-1.2-0.79-3.76,0.09-4.9c0.59-0.77,0.29-2.32,0.01-3.23c-0.06-0.21-0.12-0.41-0.17-0.62
		C1151.06,478.62,1150.91,478.01,1150.85,477.42z"/>
	<path class="st7" d="M1158,479.65c-0.23-2.16-0.33-5.41,1.01-5.99c0.76-0.33,1.31-1.78,1.69-3.46c0.69-3.1,0.45-6.36-0.72-9.32
		c-1-2.52-1.79-6.04,0.08-8.38c1.28-1.6,1.12-4.77,0.46-7.98c-0.92-4.45-6.9-8.13-9.52-10.59c-1.38-1.3-18.13-10.66-6.6-25.9
		c0.57-0.75,1.22-1.51,1.94-2.29c11.49-12.48-5.41-20.8-14.94-27.49c-2.24-1.56-4.04-3.06-5.07-4.44c-1.1-1.47-1.21-3.18-1.47-5.69
		c-0.02-0.2-0.04-0.39-0.07-0.6c-0.28-2.11-0.82-4.36-2.65-7.31c-0.82-1.32-1.8-2.67-3.22-4.3c-2.01-2.3-4.04-4.09-6.29-5.45
		c-23.91-14.46-55.87,23.05-44.41,40.32c1.1,1.66,2.04,3.3,2.95,4.93c0.4,0.72,0.79,1.44,1.17,2.16c1.23,2.35,2.26,4.56,3.1,6.75
		c1.1,2.85,1.8,5.57,2.36,8.11c0.5,2.22,0.81,4.29,0.89,6.16c0.04,0.97,0.06,1.91,0.02,2.79c-0.11,2.71-0.63,4.98-1.49,6.72
		c-1.12,2.27-2.91,3.68-5.16,3.95c-2.38,0.29-5.31-0.69-8.59-3.12c-1.89-1.4-3.87-0.86-5.8,0.71c-0.41,0.33-0.81,0.71-1.21,1.12
		c-1.9,1.93-3.78,4.75-5.31,7.54c-1.17,2.12-2.1,4.14-2.83,5.76c-4.11,9.17-6.83,16.93-8.24,23.53c-8.95,42.15,30,36.68,29.97,36.68
		c-0.01,0,9.45-0.55,18.35-3.46c7.6-2.49,14.81-6.7,15.35-13.78c0.69-8.89,7.61-5.14,12.76-1.18c2.87,2.21,5.41,4.79,7.65,7.63
		c4.04,5.1,14.11,14.66,28.82,7.32c2.57-1.28,4.55-3.57,5.47-6.37c0.4-1.22,0.55-2.35-0.04-2.88c-1.57-1.39-0.89-4.36,0.14-5.68
		c0.7-0.89,0.36-2.69,0.04-3.75c-0.07-0.24-0.14-0.48-0.2-0.72C1158.24,481.05,1158.08,480.34,1158,479.65z"/>
	<path class="st8" d="M1165.16,481.89c-0.25-2.46-0.36-6.19,1.17-6.84c0.87-0.37,1.5-2.03,1.94-3.96c0.8-3.54,0.52-7.27-0.81-10.66
		c-1.13-2.89-2.04-6.91,0.11-9.59c1.47-1.83,1.29-5.46,0.54-9.14c-1.04-5.09-7.89-9.29-10.87-12.14
		c-1.58-1.51-20.71-12.24-7.56-29.69c0.65-0.86,1.39-1.73,2.22-2.63c13.12-14.32-6.2-23.86-17.11-31.52
		c-2.56-1.79-4.63-3.51-5.8-5.1c-1.25-1.7-1.33-3.71-1.63-6.59c-0.02-0.23-0.05-0.46-0.08-0.69c-0.31-2.44-0.95-5.09-3.03-8.5
		c-0.94-1.54-2.08-3.12-3.72-5c-2.3-2.64-4.65-4.69-7.22-6.24c-27.33-16.52-64.11,26.35-51.07,46.21c1.25,1.9,2.33,3.79,3.36,5.65
		c0.46,0.83,0.9,1.65,1.33,2.47c1.4,2.68,2.57,5.22,3.53,7.72c1.25,3.26,2.08,6.36,2.73,9.27c0.57,2.54,0.92,4.91,1.02,7.06
		c0.05,1.12,0.07,2.18,0.03,3.2c-0.12,3.1-0.71,5.7-1.7,7.7c-1.29,2.61-3.32,4.22-5.89,4.54c-2.72,0.33-6.05-0.76-9.8-3.54
		c-2.15-1.59-4.42-0.97-6.62,0.83c-0.47,0.38-0.93,0.81-1.39,1.28c-2.17,2.22-4.32,5.45-6.07,8.64c-1.33,2.43-2.42,4.74-3.25,6.6
		c-4.71,10.47-7.77,19.37-9.38,26.92c-10.22,48.22,34.32,42.01,34.29,42.01c-0.01,0,10.8-0.62,20.98-3.94
		c8.7-2.84,16.93-7.65,17.56-15.74c0.8-10.16,8.71-5.87,14.59-1.34c3.28,2.52,6.19,5.48,8.75,8.73c4.62,5.84,16.11,16.73,32.95,8.38
		c2.94-1.46,5.22-4.04,6.29-7.22c0.47-1.38,0.64-2.67-0.03-3.27c-1.78-1.57-1-4.95,0.2-6.45c0.81-1.01,0.42-3.06,0.07-4.27
		c-0.08-0.27-0.15-0.55-0.22-0.82C1165.42,483.47,1165.24,482.68,1165.16,481.89z"/>
	<path class="st9" d="M1172.32,484.12c-0.29-2.77-0.4-6.96,1.33-7.69c0.99-0.42,1.69-2.29,2.19-4.46c0.91-3.99,0.6-8.18-0.89-11.99
		c-1.27-3.25-2.28-7.78,0.14-10.8c1.66-2.06,1.45-6.15,0.62-10.29c-1.16-5.74-8.88-10.46-12.22-13.68
		c-1.79-1.73-23.28-13.83-8.52-33.48c0.73-0.97,1.56-1.96,2.49-2.97c14.74-16.16-7-26.92-19.28-35.56
		c-2.89-2.02-5.22-3.95-6.52-5.75c-1.39-1.92-1.46-4.25-1.79-7.49c-0.03-0.26-0.06-0.52-0.09-0.79c-0.35-2.76-1.07-5.82-3.4-9.68
		c-1.06-1.76-2.37-3.58-4.22-5.7c-2.59-2.97-5.26-5.28-8.15-7.03c-30.74-18.59-72.35,29.65-57.72,52.09
		c1.4,2.15,2.63,4.27,3.78,6.37c0.52,0.93,1.01,1.86,1.49,2.79c1.56,3.01,2.87,5.88,3.96,8.7c1.41,3.67,2.36,7.16,3.09,10.43
		c0.64,2.86,1.04,5.53,1.16,7.95c0.06,1.26,0.08,2.46,0.04,3.6c-0.14,3.49-0.79,6.42-1.91,8.68c-1.45,2.94-3.73,4.76-6.63,5.12
		c-3.05,0.38-6.79-0.84-11.01-3.95c-2.41-1.78-4.96-1.08-7.45,0.95c-0.52,0.43-1.05,0.91-1.56,1.44c-2.45,2.51-4.85,6.16-6.82,9.74
		c-1.5,2.73-2.73,5.35-3.66,7.44c-5.29,11.79-8.72,21.8-10.52,30.31c-11.5,54.3,38.64,47.35,38.62,47.35
		c-0.01,0,12.16-0.69,23.61-4.43c9.79-3.19,19.05-8.6,19.76-17.69c0.9-11.42,9.8-6.6,16.42-1.49c3.69,2.84,6.96,6.17,9.85,9.82
		c5.2,6.57,18.11,18.8,37.08,9.45c3.31-1.63,5.89-4.52,7.11-8.07c0.53-1.55,0.73-2.99-0.03-3.66c-2-1.75-1.1-5.54,0.25-7.22
		c0.92-1.14,0.49-3.43,0.1-4.79c-0.09-0.31-0.17-0.61-0.24-0.92C1172.6,485.9,1172.41,485.01,1172.32,484.12z"/>
	<path class="st10" d="M1179.48,486.35c-0.31-3.08-0.43-7.73,1.49-8.54c1.1-0.47,1.89-2.54,2.44-4.95
		c1.01-4.43,0.68-9.09-0.97-13.33c-1.41-3.61-2.53-8.65,0.17-12.01c1.84-2.3,1.62-6.84,0.7-11.45c-1.29-6.38-9.87-11.62-13.57-15.23
		c-1.99-1.94-25.86-15.42-9.48-37.27c0.81-1.09,1.74-2.18,2.76-3.31c16.37-17.99-7.8-29.98-21.44-39.59
		c-3.21-2.25-5.81-4.39-7.24-6.4c-1.54-2.15-1.59-4.78-1.95-8.39c-0.03-0.29-0.06-0.59-0.1-0.89c-0.39-3.09-1.2-6.55-3.78-10.86
		c-1.18-1.97-2.66-4.04-4.72-6.4c-2.89-3.31-5.88-5.88-9.09-7.82c-34.16-20.65-80.59,32.94-64.38,57.97
		c1.55,2.39,2.92,4.76,4.2,7.09c0.57,1.04,1.12,2.07,1.65,3.1c1.72,3.35,3.18,6.54,4.39,9.67c1.57,4.08,2.65,7.96,3.46,11.58
		c0.71,3.18,1.15,6.15,1.29,8.85c0.07,1.4,0.1,2.74,0.05,4.01c-0.15,3.88-0.88,7.15-2.12,9.66c-1.61,3.28-4.15,5.3-7.36,5.71
		c-3.38,0.43-7.53-0.92-12.22-4.37c-2.67-1.97-5.51-1.19-8.27,1.06c-0.58,0.47-1.16,1.01-1.74,1.61c-2.74,2.8-5.39,6.86-7.58,10.84
		c-1.67,3.04-3.04,5.96-4.08,8.28c-5.88,13.1-9.66,24.24-11.66,33.7c-12.77,60.37,42.97,52.69,42.94,52.69
		c-0.01,0,13.52-0.77,26.25-4.92c10.88-3.54,21.18-9.55,21.97-19.65c1-12.69,10.89-7.32,18.25-1.65c4.1,3.16,7.74,6.86,10.95,10.92
		c5.78,7.31,20.11,20.86,41.21,10.52c3.68-1.8,6.57-4.98,7.92-8.91c0.6-1.72,0.82-3.31-0.02-4.04c-2.21-1.93-1.21-6.14,0.31-7.99
		c1.03-1.26,0.56-3.8,0.13-5.31c-0.09-0.34-0.19-0.68-0.27-1.02C1179.78,488.33,1179.58,487.34,1179.48,486.35z"/>
	<path class="st11" d="M1186.64,488.59c-0.34-3.38-0.47-8.5,1.65-9.4c1.21-0.51,2.08-2.8,2.69-5.45c1.12-4.88,0.76-10-1.05-14.67
		c-1.54-3.98-2.77-9.52,0.19-13.21c2.03-2.53,1.79-7.53,0.78-12.6c-1.41-7.03-10.87-12.78-14.91-16.78
		c-2.19-2.16-28.43-17-10.43-41.06c0.89-1.2,1.91-2.41,3.04-3.65c17.99-19.83-8.6-33.04-23.61-43.62c-3.53-2.48-6.39-4.84-7.96-7.06
		c-1.68-2.38-1.71-5.32-2.11-9.29c-0.03-0.32-0.07-0.65-0.11-0.98c-0.43-3.42-1.32-7.28-4.15-12.05c-1.3-2.19-2.95-4.49-5.21-7.09
		c-3.18-3.65-6.49-6.48-10.02-8.62c-37.57-22.72-88.83,36.24-71.03,63.86c1.7,2.63,3.21,5.24,4.62,7.81
		c0.63,1.14,1.23,2.28,1.81,3.41c1.89,3.68,3.49,7.2,4.81,10.65c1.72,4.48,2.93,8.75,3.82,12.74c0.78,3.49,1.26,6.76,1.42,9.75
		c0.08,1.54,0.11,3.01,0.06,4.41c-0.16,4.27-0.96,7.87-2.33,10.64c-1.78,3.61-4.56,5.84-8.09,6.29c-3.71,0.47-8.26-1.01-13.43-4.79
		c-2.93-2.16-6.06-1.29-9.1,1.18c-0.64,0.52-1.28,1.12-1.92,1.77c-3.01,3.09-5.93,7.56-8.33,11.94c-1.83,3.34-3.36,6.56-4.49,9.11
		c-6.46,14.42-10.6,26.67-12.8,37.08c-14.05,66.44,47.29,58.02,47.26,58.02c-0.01,0,14.87-0.84,28.88-5.4
		c11.97-3.89,23.3-10.5,24.18-21.61c1.1-13.96,11.99-8.05,20.08-1.81c4.51,3.48,8.52,7.55,12.05,12.02
		c6.37,8.04,22.12,22.93,45.34,11.59c4.05-1.98,7.24-5.45,8.74-9.76c0.66-1.88,0.9-3.63-0.01-4.43c-2.42-2.12-1.31-6.73,0.36-8.76
		c1.14-1.38,0.62-4.18,0.16-5.83c-0.1-0.37-0.2-0.75-0.29-1.12C1186.96,490.76,1186.75,489.67,1186.64,488.59z"/>
	<path class="st12" d="M1193.8,490.82c-0.37-3.69-0.51-9.27,1.81-10.25c1.32-0.56,2.27-3.05,2.94-5.94
		c1.23-5.32,0.84-10.91-1.14-16.01c-1.68-4.34-3.01-10.39,0.22-14.42c2.22-2.76,1.96-8.22,0.85-13.76
		c-1.54-7.67-11.86-13.95-16.26-18.32c-2.39-2.37-31.01-18.59-11.39-44.85c0.98-1.31,2.08-2.63,3.31-3.99
		c19.62-21.67-9.4-36.1-25.78-47.65c-3.85-2.71-6.98-5.28-8.68-7.71c-1.83-2.61-1.83-5.85-2.27-10.2c-0.04-0.35-0.08-0.71-0.12-1.08
		c-0.47-3.75-1.45-8.02-4.52-13.23c-1.42-2.41-3.23-4.95-5.71-7.79c-3.47-3.98-7.1-7.08-10.95-9.41
		c-40.99-24.78-97.06,39.54-77.68,69.74c1.85,2.88,3.5,5.73,5.04,8.53c0.68,1.25,1.34,2.49,1.97,3.72c2.05,4.01,3.8,7.87,5.24,11.63
		c1.88,4.89,3.21,9.55,4.18,13.9c0.85,3.81,1.38,7.38,1.56,10.64c0.09,1.68,0.12,3.29,0.06,4.82c-0.17,4.67-1.05,8.6-2.53,11.62
		c-1.94,3.95-4.97,6.38-8.82,6.87c-4.04,0.52-9.01-1.09-14.63-5.2c-3.19-2.35-6.6-1.4-9.92,1.3c-0.7,0.57-1.4,1.22-2.09,1.93
		c-3.29,3.38-6.47,8.26-9.09,13.04c-2,3.64-3.67,7.17-4.91,9.95c-7.04,15.74-11.54,29.11-13.95,40.47
		c-15.32,72.52,51.61,63.36,51.59,63.36c-0.01,0,16.23-0.92,31.51-5.89c13.06-4.25,25.43-11.45,26.38-23.56
		c1.21-15.22,13.08-8.78,21.92-1.97c4.92,3.79,9.29,8.24,13.15,13.11c6.95,8.78,24.12,25,49.47,12.65
		c4.42-2.15,7.91-5.92,9.55-10.61c0.72-2.05,0.99-3.95,0-4.82c-2.63-2.3-1.42-7.32,0.42-9.53c1.24-1.5,0.69-4.55,0.19-6.35
		c-0.11-0.41-0.22-0.82-0.31-1.23C1194.14,493.19,1193.91,492,1193.8,490.82z"/>
	<path class="st13" d="M1200.96,493.05c-0.4-4-0.54-10.04,1.97-11.1c1.44-0.61,2.47-3.31,3.19-6.44c1.33-5.76,0.91-11.82-1.22-17.34
		c-1.82-4.7-3.26-11.26,0.25-15.63c2.41-3,2.13-8.91,0.93-14.91c-1.66-8.32-12.85-15.11-17.61-19.87
		c-2.59-2.59-33.59-20.17-12.35-48.65c1.06-1.42,2.25-2.86,3.58-4.33c21.25-23.51-10.2-39.16-27.94-51.69
		c-4.18-2.94-7.57-5.73-9.4-8.36c-1.97-2.84-1.96-6.39-2.43-11.1c-0.04-0.38-0.08-0.78-0.13-1.18c-0.51-4.08-1.57-8.75-4.9-14.41
		c-1.54-2.63-3.52-5.41-6.21-8.49c-3.77-4.32-7.71-7.68-11.89-10.2c-44.4-26.85-105.3,42.84-84.34,75.63c2,3.12,3.79,6.21,5.45,9.26
		c0.74,1.35,1.45,2.69,2.13,4.03c2.22,4.34,4.1,8.53,5.67,12.6c2.04,5.3,3.49,10.34,4.55,15.06c0.92,4.13,1.49,8,1.69,11.54
		c0.1,1.82,0.13,3.57,0.07,5.22c-0.18,5.06-1.13,9.32-2.74,12.61c-2.1,4.28-5.38,6.92-9.56,7.46c-4.38,0.57-9.75-1.17-15.84-5.62
		c-3.46-2.54-7.15-1.51-10.74,1.42c-0.76,0.62-1.52,1.32-2.27,2.1c-3.57,3.67-7,8.96-9.84,14.14c-2.17,3.95-3.98,7.77-5.32,10.79
		c-7.62,17.05-12.49,31.55-15.09,43.86c-16.59,78.59,55.93,68.7,55.91,68.7c-0.01,0,17.59-0.99,34.15-6.38
		c14.15-4.6,27.55-12.4,28.59-25.52c1.31-16.49,14.18-9.51,23.75-2.13c5.33,4.11,10.07,8.93,14.25,14.21
		c7.53,9.51,26.12,27.06,53.6,13.72c4.79-2.33,8.59-6.4,10.37-11.46c0.79-2.21,1.08-4.27,0.01-5.21c-2.85-2.48-1.52-7.92,0.47-10.3
		c1.35-1.62,0.76-4.92,0.22-6.87c-0.12-0.44-0.23-0.88-0.33-1.33C1201.32,495.61,1201.08,494.33,1200.96,493.05z"/>
	<path class="st14" d="M1208.11,495.29c-0.43-4.31-0.58-10.81,2.13-11.96c1.55-0.65,2.66-3.56,3.45-6.93
		c1.44-6.21,0.99-12.73-1.3-18.68c-1.95-5.07-3.5-12.13,0.28-16.84c2.59-3.23,2.3-9.6,1.01-16.07
		c-1.79-8.96-13.84-16.28-18.96-21.42c-2.8-2.81-36.16-21.76-13.31-52.44c1.14-1.53,2.42-3.08,3.86-4.67
		c22.87-25.34-11-42.22-30.11-55.72c-4.5-3.17-8.16-6.17-10.13-9.02c-2.12-3.07-2.08-6.93-2.59-12c-0.04-0.42-0.09-0.84-0.14-1.27
		c-0.54-4.41-1.7-9.48-5.27-15.6c-1.66-2.85-3.81-5.87-6.71-9.19c-4.06-4.65-8.33-8.28-12.82-10.99
		c-47.82-28.91-113.54,46.14-90.99,81.51c2.15,3.37,4.08,6.7,5.87,9.98c0.8,1.46,1.56,2.9,2.29,4.34c2.38,4.68,4.41,9.19,6.1,13.58
		c2.2,5.71,3.78,11.14,4.91,16.22c0.99,4.45,1.6,8.61,1.82,12.44c0.11,1.96,0.15,3.84,0.08,5.63c-0.19,5.45-1.21,10.05-2.95,13.59
		c-2.27,4.62-5.79,7.46-10.29,8.04c-4.71,0.61-10.49-1.25-17.05-6.04c-3.72-2.73-7.7-1.62-11.57,1.54
		c-0.82,0.67-1.64,1.43-2.44,2.26c-3.85,3.97-7.54,9.67-10.6,15.24c-2.34,4.25-4.29,8.38-5.74,11.63
		c-8.21,18.37-13.43,33.98-16.23,47.25c-17.87,84.67,60.25,74.03,60.23,74.03c-0.01,0,18.94-1.07,36.78-6.86
		c15.24-4.95,29.67-13.35,30.79-27.48c1.41-17.76,15.27-10.24,25.58-2.28c5.74,4.43,10.85,9.62,15.35,15.31
		c8.11,10.25,28.13,29.13,57.73,14.79c5.16-2.5,9.26-6.87,11.19-12.31c0.85-2.38,1.17-4.59,0.02-5.6
		c-3.06-2.66-1.63-8.51,0.53-11.07c1.46-1.74,0.82-5.29,0.25-7.39c-0.13-0.47-0.25-0.95-0.36-1.43
		C1208.5,498.04,1208.25,496.67,1208.11,495.29z"/>
	<path class="st15" d="M1215.27,497.52c-0.45-4.61-0.62-11.59,2.29-12.81c1.66-0.7,2.85-3.81,3.7-7.43
		c1.55-6.65,1.07-13.64-1.38-20.02c-2.09-5.43-3.75-13,0.31-18.05c2.78-3.46,2.47-10.29,1.09-17.22
		c-1.91-9.61-14.83-17.44-20.31-22.96c-3-3.02-38.68-23.3-14.27-56.23c1.22-1.64,2.6-3.31,4.13-5.01
		c24.5-27.18-11.8-45.28-32.28-59.75c-4.82-3.4-8.75-6.61-10.85-9.67c-2.26-3.3-2.21-7.46-2.75-12.9c-0.05-0.45-0.1-0.9-0.15-1.37
		c-0.58-4.74-1.82-10.21-5.64-16.78c-1.79-3.07-4.09-6.32-7.21-9.89c-4.36-4.99-8.94-8.87-13.76-11.79
		c-51.23-30.98-121.78,49.43-97.65,87.4c2.3,3.61,4.38,7.18,6.29,10.7c0.85,1.56,1.67,3.11,2.45,4.65
		c2.55,5.01,4.72,9.85,6.52,14.55c2.35,6.11,4.06,11.93,5.28,17.38c1.06,4.76,1.72,9.23,1.96,13.33c0.13,2.1,0.16,4.12,0.09,6.04
		c-0.2,5.84-1.3,10.77-3.16,14.57c-2.43,4.95-6.2,7.99-11.02,8.62c-5.04,0.66-11.23-1.32-18.26-6.46
		c-3.98-2.92-8.25-1.73-12.39,1.65c-0.88,0.72-1.75,1.53-2.62,2.42c-4.13,4.26-8.08,10.37-11.35,16.33
		c-2.5,4.55-4.6,8.98-6.15,12.47c-8.79,19.68-14.37,36.42-17.37,50.64c-19.14,90.74,64.57,79.37,64.55,79.37
		c0,0,20.3-1.14,39.42-7.35c16.33-5.3,31.8-14.3,33-29.43c1.51-19.02,16.36-10.96,27.41-2.44c6.15,4.75,11.62,10.31,16.44,16.4
		c8.69,10.99,30.13,31.19,61.86,15.85c5.53-2.67,9.93-7.34,12-13.15c0.91-2.55,1.26-4.92,0.03-5.99c-3.27-2.85-1.73-9.1,0.58-11.84
		c1.57-1.86,0.89-5.66,0.28-7.92c-0.14-0.51-0.26-1.02-0.38-1.53C1215.68,500.47,1215.42,499,1215.27,497.52z"/>
	<path class="st16" d="M1222.43,499.75c-0.48-4.92-0.65-12.36,2.45-13.66c1.77-0.75,3.05-4.07,3.95-7.92
		c1.65-7.09,1.15-14.55-1.47-21.36c-2.23-5.8-3.99-13.87,0.33-19.26c2.97-3.69,2.63-10.98,1.17-18.38
		c-2.04-10.25-15.83-18.61-21.66-24.51c-3.2-3.24-41.27-24.89-15.23-60.02c1.3-1.75,2.77-3.53,4.41-5.35
		c26.12-29.02-12.6-48.34-34.44-63.78c-5.14-3.63-9.34-7.06-11.57-10.32c-2.41-3.53-2.33-8-2.91-13.8c-0.05-0.48-0.1-0.97-0.16-1.46
		c-0.62-5.06-1.95-10.94-6.02-17.96c-1.91-3.29-4.38-6.78-7.7-10.59c-4.65-5.33-9.55-9.47-14.69-12.58
		c-54.65-33.04-130.09,52.78-104.3,93.28c2.44,3.86,4.67,7.67,6.71,11.42c0.91,1.67,1.78,3.32,2.61,4.97
		c2.71,5.34,5.02,10.52,6.95,15.53c2.51,6.52,4.34,12.73,5.64,18.54c1.13,5.08,1.83,9.85,2.09,14.23c0.14,2.25,0.17,4.4,0.1,6.44
		c-0.21,6.24-1.38,11.49-3.37,15.55c-2.59,5.29-6.61,8.53-11.75,9.21c-5.37,0.71-11.97-1.4-19.47-6.87
		c-4.24-3.1-8.79-1.83-13.22,1.77c-0.94,0.76-1.87,1.63-2.79,2.59c-4.41,4.55-8.61,11.07-12.11,17.43
		c-2.67,4.86-4.92,9.59-6.57,13.3c-9.37,21-15.32,38.85-18.52,54.03c-20.42,96.81,68.89,84.71,68.88,84.71
		c0,0,21.65-1.22,42.05-7.83c17.42-5.65,33.92-15.25,35.21-31.39c1.62-20.29,17.46-11.69,29.24-2.6c6.56,5.07,12.4,11,17.54,17.5
		c9.28,11.72,32.13,33.26,65.99,16.92c5.9-2.85,10.6-7.81,12.82-14c0.98-2.71,1.35-5.24,0.04-6.37c-3.49-3.03-1.83-9.7,0.64-12.61
		c1.68-1.98,0.96-6.04,0.31-8.44c-0.14-0.54-0.28-1.08-0.4-1.63C1222.86,502.9,1222.59,501.33,1222.43,499.75z"/>
	<path class="st17" d="M1229.59,501.99c-0.51-5.23-0.69-13.13,2.61-14.52c1.88-0.79,3.24-4.32,4.2-8.42
		c1.76-7.54,1.23-15.47-1.55-22.7c-2.36-6.16-4.24-14.74,0.36-20.47c3.16-3.93,2.8-11.67,1.25-19.53
		c-2.16-10.9-16.82-19.78-23-26.06c-3.4-3.45-43.85-26.49-16.19-63.81c1.39-1.86,2.94-3.76,4.68-5.69
		c27.75-30.86-13.39-51.4-36.61-67.82c-5.47-3.86-9.93-7.5-12.29-10.98c-2.56-3.76-2.45-8.53-3.07-14.71
		c-0.05-0.51-0.11-1.03-0.17-1.56c-0.66-5.39-2.07-11.68-6.39-19.15c-2.03-3.51-4.67-7.24-8.2-11.29
		c-4.94-5.66-10.16-10.07-15.62-13.37c-58.07-35.11-138.32,56.06-110.96,99.16c2.59,4.1,4.96,8.15,7.13,12.14
		c0.96,1.77,1.89,3.53,2.78,5.28c2.88,5.68,5.33,11.18,7.38,16.5c2.67,6.93,4.63,13.53,6,19.69c1.21,5.4,1.95,10.46,2.23,15.13
		c0.15,2.39,0.18,4.67,0.11,6.85c-0.23,6.63-1.46,12.22-3.58,16.53c-2.76,5.62-7.03,9.06-12.48,9.79
		c-5.71,0.74-12.71-1.48-20.68-7.29c-4.51-3.29-9.34-1.94-14.04,1.89c-1,0.81-1.99,1.74-2.97,2.75
		c-4.68,4.84-9.15,11.77-12.87,18.53c-2.84,5.16-5.23,10.2-6.99,14.14c-9.96,22.32-16.26,41.29-19.66,57.42
		c-21.69,102.89,73.21,90.04,73.2,90.04c0,0,23.01-1.29,44.68-8.32c18.51-6,36.05-16.2,37.41-33.35
		c1.72-21.56,18.55-12.42,31.07-2.76c6.98,5.38,13.17,11.69,18.64,18.6c9.86,12.46,34.11,35.27,70.12,17.99
		c6.27-3.03,11.27-8.28,13.63-14.85c1.04-2.88,1.44-5.56,0.05-6.76c-3.7-3.21-1.94-10.29,0.69-13.38c1.79-2.1,1.02-6.41,0.34-8.96
		c-0.15-0.57-0.3-1.15-0.43-1.73C1230.04,505.32,1229.75,503.66,1229.59,501.99z"/>
	<path class="st18" d="M1236.75,504.22c-0.54-5.53-0.72-13.9,2.77-15.37c2-0.84,3.43-4.58,4.45-8.91c1.87-7.98,1.3-16.38-1.63-24.03
		c-2.5-6.52-4.48-15.61,0.39-21.67c3.34-4.16,2.97-12.36,1.32-20.69c-2.29-11.55-17.81-20.94-24.35-27.6
		c-3.6-3.67-46.44-28.08-17.15-67.6c1.47-1.97,3.11-3.98,4.95-6.03c29.38-32.69-14.19-54.46-38.77-71.85
		c-5.79-4.09-10.52-7.95-13.01-11.63c-2.7-3.98-2.58-9.07-3.23-15.61c-0.05-0.54-0.12-1.09-0.18-1.66
		c-0.7-5.72-2.21-12.4-6.77-20.33c-2.15-3.72-4.96-7.7-8.7-11.99c-5.24-6-10.78-10.67-16.56-14.16
		c-61.48-37.17-146.54,59.35-117.61,105.05c2.74,4.35,5.25,8.64,7.54,12.86c1.02,1.88,2,3.74,2.94,5.59
		c3.04,6.01,5.64,11.84,7.81,17.48c2.82,7.34,4.91,14.32,6.37,20.85c1.28,5.72,2.06,11.08,2.36,16.02c0.16,2.53,0.2,4.95,0.12,7.25
		c-0.24,7.02-1.55,12.94-3.79,17.51c-2.92,5.95-7.44,9.6-13.22,10.37c-6.04,0.79-13.46-1.56-21.89-7.71
		c-4.77-3.48-9.89-2.05-14.86,2.01c-1.06,0.86-2.11,1.84-3.15,2.92c-4.96,5.13-9.69,12.47-13.62,19.63c-3,5.46-5.54,10.8-7.4,14.98
		c-10.54,23.63-17.2,43.72-20.8,60.81c-22.96,108.96,77.53,95.38,77.52,95.38c0,0,24.37-1.37,47.32-8.81
		c19.6-6.36,38.17-17.15,39.62-35.3c1.82-22.82,19.65-13.15,32.9-2.91c7.39,5.7,13.95,12.38,19.74,19.69
		c10.44,13.19,36.12,37.35,74.25,19.06c6.64-3.2,11.94-8.75,14.45-15.7c1.1-3.04,1.52-5.88,0.06-7.15
		c-3.91-3.39-2.04-10.88,0.75-14.16c1.89-2.22,1.09-6.78,0.37-9.48c-0.16-0.61-0.31-1.22-0.45-1.83
		C1237.22,507.75,1236.92,505.99,1236.75,504.22z"/>
	<path class="st19" d="M1243.91,506.45c-0.56-5.84-0.76-14.67,2.93-16.22c2.11-0.88,3.63-4.83,4.7-9.41
		c1.97-8.43,1.38-17.29-1.71-25.37c-2.64-6.89-4.73-16.48,0.42-22.88c3.53-4.39,3.14-13.05,1.4-21.84
		c-2.41-12.19-18.81-22.1-25.7-29.15c-3.81-3.88-49.03-29.67-18.11-71.39c1.55-2.08,3.28-4.21,5.23-6.37
		c31-34.53-14.99-57.52-40.94-75.88c-6.11-4.32-11.11-8.39-13.73-12.28c-2.85-4.21-2.7-9.61-3.4-16.51
		c-0.06-0.57-0.12-1.16-0.19-1.75c-0.74-6.05-2.33-13.14-7.14-21.51c-2.27-3.94-5.24-8.15-9.2-12.68
		c-5.53-6.34-11.39-11.27-17.49-14.96c-64.9-39.24-154.76,62.64-124.26,110.93c2.89,4.59,5.54,9.12,7.96,13.58
		c1.08,1.98,2.11,3.95,3.1,5.9c3.21,6.34,5.95,12.5,8.23,18.45c2.98,7.74,5.19,15.12,6.73,22.01c1.35,6.03,2.17,11.7,2.49,16.92
		c0.17,2.67,0.21,5.23,0.13,7.66c-0.25,7.41-1.63,13.67-4,18.49c-3.08,6.29-7.85,10.14-13.95,10.96c-6.37,0.84-14.2-1.64-23.1-8.12
		c-5.03-3.67-10.43-2.16-15.69,2.13c-1.12,0.91-2.22,1.94-3.32,3.08c-5.24,5.42-10.22,13.18-14.38,20.73
		c-3.17,5.77-5.85,11.41-7.82,15.82c-11.12,24.95-18.14,46.16-21.94,64.19c-24.24,115.04,81.85,100.72,81.85,100.72
		c0,0,25.72-1.44,49.95-9.29c20.69-6.71,40.29-18.1,41.82-37.26c1.92-24.09,20.74-13.87,34.74-3.07
		c7.8,6.02,14.73,13.07,20.84,20.79c11.02,13.93,38.13,39.43,78.38,20.12c7.01-3.38,12.61-9.22,15.27-16.55
		c1.17-3.21,1.61-6.2,0.07-7.54c-4.13-3.58-2.15-11.47,0.8-14.93c2-2.34,1.16-7.15,0.41-10c-0.17-0.64-0.33-1.29-0.47-1.93
		C1244.4,510.18,1244.09,508.33,1243.91,506.45z"/>
	<path class="st20" d="M1251.07,508.69c-0.59-6.15-0.8-15.44,3.09-17.08c2.22-0.93,3.82-5.09,4.95-9.91
		c2.08-8.87,1.46-18.2-1.79-26.71c-2.77-7.25-4.97-17.35,0.45-24.09c3.72-4.63,3.31-13.74,1.48-23
		c-2.53-12.84-19.8-23.27-27.05-30.7c-4.01-4.1-51.61-31.26-19.07-75.19c1.63-2.19,3.46-4.43,5.5-6.71
		c32.63-36.37-15.79-60.58-43.11-79.91c-6.43-4.55-11.7-8.83-14.46-12.94c-3-4.44-2.82-10.14-3.56-17.41
		c-0.06-0.61-0.13-1.22-0.2-1.85c-0.77-6.38-2.45-13.87-7.51-22.7c-2.39-4.16-5.53-8.61-9.69-13.38c-5.82-6.67-12-11.87-18.42-15.75
		c-68.31-41.3-162.99,65.93-130.92,116.82c3.04,4.83,5.83,9.61,8.38,14.3c1.13,2.09,2.22,4.16,3.26,6.21
		c3.37,6.67,6.25,13.16,8.66,19.43c3.14,8.15,5.47,15.91,7.09,23.17c1.42,6.35,2.28,12.32,2.63,17.81c0.18,2.81,0.22,5.5,0.13,8.06
		c-0.26,7.8-1.72,14.39-4.21,19.47c-3.25,6.62-8.26,10.69-14.68,11.54c-6.7,0.89-14.94-1.71-24.31-8.54
		c-5.29-3.86-10.98-2.27-16.51,2.24c-1.17,0.96-2.34,2.05-3.5,3.24c-5.52,5.71-10.76,13.88-15.13,21.83
		c-3.34,6.07-6.16,12.01-8.23,16.65c-11.71,26.26-19.09,48.6-23.09,67.58c-25.51,121.11,86.17,106.05,86.17,106.05
		c0,0,27.08-1.52,52.58-9.78c21.78-7.06,42.42-19.05,44.03-39.22c2.03-25.36,21.83-14.6,36.57-3.23
		c8.21,6.34,15.5,13.76,21.94,21.89c11.6,14.66,40.14,41.51,82.51,21.19c7.38-3.55,13.28-9.69,16.08-17.39
		c1.23-3.38,1.7-6.52,0.07-7.93c-4.34-3.76-2.25-12.07,0.86-15.7c2.11-2.46,1.22-7.52,0.44-10.52c-0.18-0.68-0.34-1.35-0.5-2.03
		C1251.58,512.61,1251.26,510.66,1251.07,508.69z"/>
	<path class="st21" d="M1241.37,573.26c7.76-3.72,13.95-10.16,16.9-18.24c1.29-3.54,1.79-6.84,0.08-8.32
		c-4.55-3.94-2.36-12.66,0.91-16.47c2.22-2.59,1.29-7.9,0.47-11.04c-0.71-2.72-1.24-5.48-1.51-8.28
		c-0.62-6.45-0.83-16.22,3.25-17.93c2.33-0.98,4.01-5.34,5.2-10.4c2.19-9.31,1.54-19.11-1.88-28.05c-2.91-7.61-5.21-18.22,0.48-25.3
		c3.91-4.86,3.48-14.43,1.56-24.15c-2.66-13.48-20.78-24.44-28.4-32.24c-4.42-4.53-59.31-35.77-14.25-86.03
		c42.32-47.2-45.26-74.91-60.45-97.54c-7.32-10.89,3.46-29.03-22.01-58.22c-71.21-81.59-193.73,47.65-156.93,106.16
		c53.14,84.49,33.24,151.27-13.67,117.07c-16.68-12.16-37.13,27.31-45.54,46.19c-90.67,203.5,66.26,182.36,66.26,182.36
		s97.77-5.47,101.45-51.44c2.13-26.62,22.93-15.33,38.4-3.39c8.62,6.65,16.28,14.44,23.04,22.98
		C1166.92,566.41,1196.88,594.6,1241.37,573.26z"/>
</g>
</svg>
