<?xml version="1.0" encoding="utf-8"?>
<!-- Generator: Adobe Illustrator 27.3.1, SVG Export Plug-In . SVG Version: 6.00 Build 0)  -->
<svg version="1.1" id="Layer_1" xmlns="http://www.w3.org/2000/svg" xmlns:xlink="http://www.w3.org/1999/xlink" x="0px" y="0px"
	 viewBox="0 0 1366 768" style="enable-background:new 0 0 1366 768;" xml:space="preserve">
<style type="text/css">
	.st0{fill:none;stroke:#738979;stroke-width:0.75;stroke-miterlimit:10;}
	.st1{fill:none;stroke:#768675;stroke-width:0.8571;stroke-miterlimit:10;}
	.st2{fill:none;stroke:#7A8271;stroke-width:0.9643;stroke-miterlimit:10;}
	.st3{fill:none;stroke:#7D7F6D;stroke-width:1.0714;stroke-miterlimit:10;}
	.st4{fill:none;stroke:#807B68;stroke-width:1.1786;stroke-miterlimit:10;}
	.st5{fill:none;stroke:#837864;stroke-width:1.2857;stroke-miterlimit:10;}
	.st6{fill:none;stroke:#877460;stroke-width:1.3929;stroke-miterlimit:10;}
	.st7{fill:none;stroke:#8A715C;stroke-width:1.5;stroke-miterlimit:10;}
	.st8{fill:none;stroke:#8D6E58;stroke-width:1.6071;stroke-miterlimit:10;}
	.st9{fill:none;stroke:#916A54;stroke-width:1.7143;stroke-miterlimit:10;}
	.st10{fill:none;stroke:#946750;stroke-width:1.8214;stroke-miterlimit:10;}
	.st11{fill:none;stroke:#97634B;stroke-width:1.9286;stroke-miterlimit:10;}
	.st12{fill:none;stroke:#9A6047;stroke-width:2.0357;stroke-miterlimit:10;}
	.st13{fill:none;stroke:#9E5C43;stroke-width:2.1429;stroke-miterlimit:10;}
	.st14{fill:none;stroke:#A1593F;stroke-width:2.25;stroke-miterlimit:10;}
	.st15{fill:none;stroke:#A4563B;stroke-width:2.3571;stroke-miterlimit:10;}
	.st16{fill:none;stroke:#A85237;stroke-width:2.4643;stroke-miterlimit:10;}
	.st17{fill:none;stroke:#AB4F33;stroke-width:2.5714;stroke-miterlimit:10;}
	.st18{fill:none;stroke:#AE4B2E;stroke-width:2.6786;stroke-miterlimit:10;}
	.st19{fill:none;stroke:#B1482A;stroke-width:2.7857;stroke-miterlimit:10;}
	.st20{fill:none;stroke:#B54426;stroke-width:2.8929;stroke-miterlimit:10;}
	.st21{fill:none;stroke:#B84122;stroke-width:3;stroke-miterlimit:10;}
</style>
<g>
	<path class="st0" d="M1544.03,301.94c0,0-165.46,26.96-189.78,100.27c-5.46,16.45-10.13,24.2-29.19,33.24
		c-26.14,12.4-83.48,22.82-90.65-21.6c-0.65-4.04-3.25-7.57-7.02-9.23c-5.95-2.62-16.32-1.51-32.58,17.28
		c-15.26,17.62-27.12,34.1-36.4,44.96c-6.72,7.85-19.36,5.54-22.97-4.06c-3.52-9.35-14.94-65.89-22.48-1.31
		c-3.97,34.04-106.75,16.3-249.58-39.71c-6.63-2.6-12.19-8-15.43-14.96c-8.81-18.95-16.94-53.34,52.27-35.41"/>
	<path class="st1" d="M1542.14,299.95c0,0-87.45,15.63-142.8,47.28c-21.86,12.5-40,26.6-47.19,46.02
		c-5.21,14.07-9.62,21.89-24.6,30.77c-1.41,0.83-2.94,1.62-4.53,2.48c-26.16,14.2-81.36,26.62-89.1-17.6
		c-0.7-4.01-3.24-7.57-6.91-9.36c-5.76-2.79-15.97-2.01-31.92,15.65c-15.03,16.55-27.01,32.04-36.43,42.51
		c-6.73,7.47-18.9,5.34-22.72-3.63c-3.2-7.51-11.98-48.11-19.34-19.65c-1.23,4.74-2.39,11.24-3.47,19.96
		c-2.28,18.38-31.39,21.73-81.05,13.83c-20.42-3.25-43.39-9.63-69.35-17.98c-27.76-8.93-59.35-18.52-93.29-30.79
		c-6.53-2.36-11.98-7.46-15.33-13.99c-9.15-17.8-18-50.31,46.97-33.55"/>
	<path class="st2" d="M1540.25,297.96c0,0-89.86,17.4-143.43,45.83c-21.19,11.25-39.28,22.39-46.77,40.5
		c-5.43,13.13-9.93,20.99-24.68,30.64c-1.36,0.89-2.87,1.68-4.39,2.62c-26.23,16.07-79.25,30.43-87.55-13.61
		c-0.74-3.98-3.23-7.58-6.81-9.48c-5.56-2.97-15.58-2.48-31.27,14.03c-14.74,15.51-26.9,29.97-36.46,40.06
		c-6.73,7.09-18.44,5.13-22.47-3.2c-3.38-6.98-12.05-45.13-19.54-17.64c-1.29,4.73-2.49,11.11-3.6,19.57
		c-2.41,18.35-29.63,21.81-78.34,15.71c-20.26-2.54-42.36-9.2-67.85-17.79c-26.7-9-57.96-16.98-91.63-28.09
		c-6.42-2.12-11.77-6.93-15.24-13.02c-9.49-16.66-19.06-47.28,41.67-31.69"/>
	<path class="st3" d="M1538.36,295.97c0,0-92.3,19.18-144.06,44.39c-20.53,10-38.55,18.18-46.36,34.98
		c-5.66,12.17-10.24,20.07-24.76,30.51c-1.31,0.94-2.8,1.76-4.26,2.76c-26.32,18.02-77.13,34.23-86-9.61
		c-0.79-3.95-3.22-7.58-6.7-9.61c-5.36-3.13-15.22-2.96-30.61,12.4c-14.49,14.46-26.78,27.91-36.49,37.61
		c-6.73,6.71-17.99,4.92-22.22-2.76c-3.56-6.46-12.14-42.15-19.73-15.64c-1.35,4.73-2.6,10.97-3.74,19.17
		c-2.55,18.33-27.9,21.92-75.62,17.59c-20.11-1.82-41.33-8.76-66.34-17.59c-25.65-9.07-56.57-15.44-89.98-25.4
		c-6.32-1.88-11.57-6.4-15.14-12.04c-9.84-15.53-20.12-44.25,36.36-29.82"/>
	<path class="st4" d="M1536.48,293.98c0,0-94.77,20.97-144.68,42.94c-19.89,8.75-37.81,13.96-45.94,29.46
		c-5.88,11.22-10.55,19.13-24.84,30.38c-1.27,1-2.72,1.84-4.12,2.9c-26.41,20.04-75.01,38.04-84.45-5.61
		c-0.83-3.92-3.21-7.57-6.6-9.74c-5.16-3.3-14.85-3.45-29.95,10.77c-14.23,13.4-26.65,25.84-36.52,35.15
		c-6.72,6.34-17.55,4.69-21.97-2.33c-3.75-5.95-12.25-39.17-19.93-13.63c-1.42,4.72-2.71,10.83-3.87,18.78
		c-2.69,18.31-26.18,22.04-72.91,19.47c-19.97-1.1-40.3-8.31-64.83-17.4c-24.59-9.12-55.16-13.92-88.32-22.71
		c-6.22-1.65-11.37-5.87-15.05-11.07c-10.21-14.41-21.18-41.22,31.06-27.96"/>
	<path class="st5" d="M1534.59,291.99c0,0-97.28,22.76-145.31,41.49c-19.26,7.51-37.07,9.72-45.52,23.94
		c-6.09,10.25-10.86,18.17-24.92,30.25c-1.22,1.05-2.65,1.92-3.98,3.04c-26.49,22.13-72.98,41.86-82.9-1.62
		c-0.89-3.88-3.2-7.57-6.49-9.87c-4.97-3.46-14.49-3.93-29.29,9.15c-13.98,12.35-26.52,23.78-36.55,32.7
		c-6.71,5.96-17.13,4.46-21.72-1.89c-3.95-5.46-12.37-36.19-20.12-11.62c-1.49,4.71-2.82,10.69-4.01,18.39
		c-2.83,18.29-24.48,22.2-70.19,21.35c-19.83-0.37-39.27-7.85-63.32-17.21c-23.54-9.16-53.75-12.39-86.66-20.02
		c-6.11-1.41-11.17-5.35-14.95-10.1c-10.59-13.31-22.24-38.19,25.76-26.1"/>
	<path class="st6" d="M1532.7,290c0,0-99.84,24.54-145.94,40.04c-18.66,6.27-36.32,5.48-45.1,18.42c-6.3,9.28-11.17,17.21-25,30.12
		c-1.17,1.1-2.57,2.01-3.84,3.18c-26.55,24.29-70.88,45.67-81.35,2.38c-0.93-3.85-3.19-7.56-6.39-9.99
		c-4.77-3.62-14.13-4.41-28.64,7.52c-13.73,11.3-26.38,21.72-36.58,30.25c-6.69,5.59-16.72,4.22-21.47-1.46
		c-4.17-4.97-12.51-33.22-20.32-9.61c-1.56,4.71-2.93,10.55-4.14,17.99c-2.98,18.27-22.79,22.38-67.48,23.23
		c-19.7,0.38-38.23-7.38-61.81-17.01c-22.49-9.18-52.32-10.88-85.01-17.32c-6-1.18-10.99-4.83-14.86-9.12
		c-11-12.22-23.3-35.16,20.46-24.24"/>
	<path class="st7" d="M1530.81,288.01c0,0-102.45,26.31-146.57,38.59c-18.08,5.03-35.55,1.23-44.68,12.9
		c-6.5,8.31-11.5,16.22-25.08,29.99c-1.13,1.14-2.49,2.11-3.71,3.31c-26.58,26.51-68.77,49.48-79.8,6.38
		c-0.98-3.82-3.18-7.56-6.28-10.12c-4.57-3.78-13.78-4.9-27.98,5.89c-13.49,10.25-26.23,19.66-36.61,27.8
		c-6.66,5.23-16.33,3.97-21.22-1.02c-4.4-4.5-12.67-30.25-20.51-7.6c-1.63,4.7-3.05,10.41-4.28,17.6
		c-3.13,18.25-21.12,22.6-64.76,25.12c-19.58,1.13-37.19-6.91-60.31-16.82c-21.44-9.19-50.89-9.38-83.35-14.63
		c-5.89-0.95-10.82-4.31-14.76-8.15c-11.43-11.13-24.36-32.13,15.16-22.38"/>
	<path class="st8" d="M1528.92,286.02c0,0-105.12,28.05-147.2,37.14c-17.53,3.79-34.77-3.04-44.26,7.38
		c-6.68,7.33-11.83,15.23-25.16,29.86c-1.09,1.19-2.41,2.2-3.57,3.45c-26.56,28.78-66.66,53.28-78.25,10.38
		c-1.02-3.79-3.17-7.55-6.18-10.25c-4.38-3.93-13.43-5.38-27.32,4.27c-13.24,9.19-26.08,17.6-36.64,25.35
		c-6.63,4.86-15.97,3.73-20.97-0.59c-4.66-4.03-12.85-27.29-20.71-5.6c-1.7,4.7-3.16,10.27-4.41,17.21
		c-3.28,18.23-19.45,22.84-62.05,27c-19.46,1.9-36.16-6.42-58.8-16.63c-20.39-9.19-49.45-7.89-81.69-11.94
		c-5.78-0.73-10.65-3.78-14.67-7.17c-11.9-10.05-25.42-29.1,9.86-20.52"/>
	<path class="st9" d="M1527.04,284.03c0,0-107.86,29.74-147.83,35.7c-17.01,2.54-33.96-7.3-43.85,1.86
		c-6.85,6.35-12.17,14.22-25.24,29.73c-1.04,1.24-2.33,2.3-3.43,3.59c-26.5,31.11-64.54,57.09-76.7,14.37
		c-1.07-3.75-3.16-7.54-6.07-10.37c-4.19-4.08-13.08-5.86-26.66,2.64c-13.01,8.14-25.91,15.55-36.67,22.9
		c-6.59,4.5-15.64,3.5-20.72-0.15c-4.94-3.55-13.05-24.33-20.9-3.59c-1.78,4.69-3.29,10.13-4.55,16.81
		c-3.44,18.21-17.79,23.13-59.33,28.88c-19.35,2.68-35.12-5.93-57.29-16.43c-19.35-9.17-48.01-6.41-80.04-9.24
		c-5.67-0.5-10.5-3.26-14.57-6.2c-12.39-8.96-26.48-26.07,4.55-18.66"/>
	<path class="st10" d="M1525.15,282.05c0,0-110.67,31.36-148.45,34.25c-16.52,1.26-33.13-11.57-43.43-3.66
		c-6.99,5.37-12.53,13.2-25.31,29.61c-1,1.28-2.24,2.4-3.29,3.73c-26.37,33.49-62.43,60.9-75.15,18.37
		c-1.11-3.72-3.16-7.52-5.97-10.5c-4-4.23-12.74-6.35-26.01,1.01c-12.77,7.09-25.74,13.51-36.7,20.45
		c-6.55,4.15-15.34,3.29-20.47,0.28c-5.24-3.07-13.26-21.37-21.1-1.58c-1.85,4.68-3.41,9.99-4.68,16.42
		c-3.61,18.18-16.13,23.44-56.62,30.76c-19.23,3.47-34.09-5.42-55.78-16.24c-18.31-9.14-46.56-4.95-78.38-6.55
		c-5.55-0.28-10.36-2.72-14.48-5.23c-12.91-7.85-27.54-23.04-0.75-16.8"/>
	<path class="st11" d="M1523.26,280.06c0,0-113.54,32.89-149.08,32.8c-16.07-0.04-32.27-15.82-43.01-9.18
		c-7.12,4.41-12.9,12.18-25.39,29.48c-0.96,1.33-2.16,2.5-3.15,3.87c-26.18,35.9-60.31,64.71-73.6,22.37
		c-1.16-3.69-3.15-7.51-5.86-10.63c-3.81-4.38-12.4-6.84-25.35-0.61c-12.54,6.03-25.57,11.48-36.73,18
		c-6.51,3.8-15.06,3.09-20.22,0.72c-5.57-2.57-13.48-18.42-21.29,0.43c-1.94,4.67-3.54,9.85-4.82,16.03
		c-3.78,18.16-14.46,23.8-53.9,32.64c-19.11,4.29-33.06-4.89-54.27-16.04c-17.28-9.09-45.1-3.5-76.72-3.86
		c-5.44-0.06-10.23-2.18-14.38-4.25c-13.47-6.73-28.6-20.01-6.05-14.93"/>
	<path class="st12" d="M1521.37,278.07c0,0-116.46,34.31-149.71,31.35c-15.63-1.39-31.38-20.06-42.59-14.7
		c-7.23,3.46-13.28,11.15-25.47,29.35c-0.92,1.37-2.07,2.6-3.02,4.01c-25.93,38.35-58.19,68.51-72.05,26.36
		c-1.2-3.66-3.15-7.49-5.76-10.75c-3.62-4.52-12.07-7.33-24.69-2.24c-12.32,4.97-25.38,9.45-36.76,15.54
		c-6.46,3.46-14.8,2.93-19.97,1.15c-5.91-2.03-13.73-15.47-21.49,2.44c-2.02,4.66-3.66,9.71-4.95,15.63
		c-3.95,18.14-12.79,24.18-51.19,34.52c-19,5.11-32.04-4.35-52.77-15.85c-16.25-9.02-43.65-2.07-75.07-1.17
		c-5.33,0.15-10.11-1.62-14.29-3.28c-14.05-5.56-29.66-16.98-11.35-13.07"/>
	<path class="st13" d="M1519.48,276.08c0,0-119.4,35.58-150.34,29.9c-15.21-2.79-30.46-24.25-42.17-20.22
		c-7.32,2.53-13.68,10.11-25.55,29.22c-0.88,1.42-1.98,2.71-2.88,4.15c-25.61,40.82-56.07,72.32-70.5,30.36
		c-1.25-3.63-3.15-7.48-5.65-10.88c-3.44-4.67-11.75-7.83-24.03-3.87c-12.1,3.91-25.19,7.44-36.79,13.09
		c-6.4,3.12-14.54,2.8-19.72,1.59c-6.27-1.47-13.99-12.54-21.68,4.44c-2.11,4.65-3.79,9.57-5.09,15.24
		c-4.14,18.11-11.11,24.6-48.47,36.4c-18.87,5.96-31.02-3.79-51.26-15.66c-15.23-8.94-42.19-0.66-73.41,1.53
		c-5.21,0.37-9.99-1.06-14.19-2.31c-14.64-4.35-30.72-13.95-16.65-11.21"/>
	<path class="st14" d="M1517.6,274.09c0,0-122.32,36.72-150.97,28.45c-14.79-4.26-29.54-28.41-41.75-25.74
		c-7.41,1.62-14.08,9.07-25.63,29.09c-0.84,1.46-1.88,2.81-2.74,4.29c-25.22,43.31-53.94,76.12-68.95,34.36
		c-1.29-3.6-3.15-7.46-5.55-11.01c-3.25-4.81-11.43-8.34-23.37-5.49c-11.89,2.83-24.99,5.44-36.82,10.64
		c-6.35,2.79-14.28,2.7-19.47,2.02c-6.62-0.86-14.26-9.6-21.88,6.45c-2.2,4.64-3.93,9.43-5.22,14.85
		c-4.33,18.09-9.41,25.05-45.76,38.28c-18.74,6.82-30.02-3.21-49.75-15.46c-14.22-8.84-40.74,0.73-71.75,4.22
		c-5.1,0.57-9.87-0.48-14.1-1.33c-15.24-3.09-31.78-10.92-21.95-9.35"/>
	<path class="st15" d="M1515.71,272.1c0,0-125.19,37.71-151.6,27.01c-14.33-5.81-28.63-32.52-41.34-31.26
		c-7.51,0.75-14.51,8.02-25.71,28.96c-0.8,1.5-1.79,2.91-2.6,4.42c-24.76,45.82-51.81,79.92-67.4,38.35
		c-1.34-3.56-3.15-7.44-5.44-11.14c-3.08-4.95-11.11-8.86-22.72-7.12c-11.68,1.75-24.79,3.45-36.85,8.19
		c-6.29,2.47-14.01,2.62-19.22,2.46c-6.96-0.21-14.55-6.68-22.07,8.46c-2.3,4.63-4.06,9.28-5.36,14.45
		c-4.53,18.06-7.7,25.53-43.05,40.17c-18.59,7.7-29.03-2.6-48.24-15.27c-13.23-8.72-39.29,2.1-70.1,6.91
		c-4.99,0.78-9.75,0.12-14-0.36c-15.84-1.78-32.84-7.89-27.26-7.49"/>
	<path class="st16" d="M1513.82,270.11c0,0-127.96,38.6-152.22,25.56c-13.81-7.43-27.73-36.59-40.92-36.78
		c-7.61-0.11-14.94,6.97-25.79,28.83c-0.77,1.55-1.69,3.01-2.47,4.56c-24.24,48.35-49.69,83.72-65.85,42.35
		c-1.38-3.53-3.15-7.42-5.34-11.26c-2.9-5.09-10.8-9.39-22.06-8.75c-11.47,0.65-24.59,1.48-36.88,5.74
		c-6.23,2.16-13.72,2.55-18.97,2.89c-7.28,0.47-14.85-3.76-22.27,10.47c-2.4,4.61-4.2,9.14-5.5,14.06
		c-4.74,18.02-5.96,26.03-40.33,42.05c-18.44,8.59-28.06-1.97-46.73-15.08c-12.24-8.59-37.86,3.44-68.44,9.6
		c-4.88,0.98-9.62,0.72-13.91,0.61c-16.41-0.42-33.9-4.86-32.56-5.63"/>
	<path class="st17" d="M1511.93,268.12c0,0-130.6,39.42-152.85,24.11c-13.22-9.1-26.87-40.63-40.5-42.29
		c-7.74-0.95-15.39,5.93-25.87,28.7c-0.73,1.59-1.59,3.12-2.33,4.7c-23.65,50.87-47.48,87.49-64.3,46.35
		c-1.42-3.5-3.16-7.4-5.23-11.39c-2.72-5.24-10.48-9.93-21.4-10.37c-11.26-0.46-24.38-0.47-36.9,3.29
		c-6.17,1.85-13.41,2.5-18.72,3.33c-7.57,1.18-15.16-0.86-22.47,12.48c-2.51,4.59-4.34,9-5.63,13.67
		c-4.96,17.99-4.19,26.55-37.62,43.93c-18.27,9.5-27.12-1.31-45.22-14.88c-11.27-8.44-36.43,4.77-66.78,12.3
		c-4.77,1.18-9.49,1.34-13.81,1.59c-16.95,0.99-34.96-1.83-37.86-3.77"/>
	<path class="st18" d="M1510.04,266.13c0,0-133.1,40.23-153.48,22.66c-12.54-10.81-26.04-44.64-40.08-47.81
		c-7.88-1.78-15.85,4.88-25.95,28.57c-0.7,1.63-1.49,3.22-2.19,4.84c-23,53.4-45.36,91.3-62.75,50.35
		c-1.46-3.47-3.17-7.39-5.13-11.52c-2.55-5.38-10.15-10.48-20.74-12c-11.04-1.58-24.18-2.4-36.93,0.84
		c-6.11,1.55-13.08,2.46-18.47,3.76c-7.84,1.9-15.48,2.04-22.66,14.48c-2.63,4.56-4.48,8.85-5.77,13.27
		c-5.2,17.95-2.4,27.09-34.9,45.81c-18.08,10.42-26.21-0.62-43.72-14.69c-10.31-8.28-35.02,6.08-65.12,14.99
		c-4.66,1.38-9.34,1.96-13.72,2.56c-17.46,2.42-36.02,1.2-43.16-1.91"/>
	<path class="st19" d="M1508.16,264.14c0,0-135.44,41.07-154.11,21.21c-11.76-12.51-25.24-48.66-39.66-53.33
		c-8.05-2.61-16.32,3.84-26.03,28.44c-0.66,1.68-1.39,3.32-2.05,4.98c-22.29,55.93-43.24,95.1-61.2,54.34
		c-1.51-3.44-3.18-7.37-5.02-11.64c-2.38-5.52-9.81-11.05-20.09-13.63c-10.81-2.71-23.98-4.31-36.96-1.62
		c-6.06,1.26-12.72,2.41-18.22,4.2c-8.08,2.63-15.82,4.93-22.86,16.49c-2.75,4.52-4.63,8.71-5.9,12.88
		c-5.45,17.9-0.58,27.64-32.19,47.69c-17.88,11.35-25.34,0.11-42.21-14.49c-9.37-8.11-33.63,7.37-63.47,17.68
		c-4.56,1.57-9.19,2.58-13.62,3.54c-17.93,3.88-37.08,4.23-48.46-0.04"/>
	<path class="st20" d="M1506.27,262.16c0,0-137.67,41.99-154.74,19.76c-10.91-14.2-24.46-52.67-39.24-58.85
		c-8.23-3.44-16.8,2.79-26.11,28.31c-0.63,1.72-1.29,3.42-1.92,5.12c-21.53,58.45-41.12,98.91-59.64,58.34
		c-1.55-3.41-3.19-7.35-4.92-11.77c-2.21-5.66-9.46-11.62-19.43-15.25c-10.56-3.85-23.78-6.21-36.99-4.07
		c-6.01,0.97-12.34,2.36-17.97,4.63c-8.3,3.35-16.16,7.8-23.05,18.5c-2.89,4.48-4.78,8.56-6.04,12.49
		c-5.72,17.84,1.27,28.19-29.47,49.57c-17.66,12.28-24.52,0.87-40.7-14.3c-8.46-7.93-32.25,8.64-61.81,20.38
		c-4.45,1.77-9.02,3.2-13.53,4.51c-18.37,5.34-38.14,7.26-53.76,1.82"/>
	<path class="st21" d="M1504.38,260.17c0,0-139.79,43-155.37,18.32c-15.58-24.68-40.16-110.03-65.01-36.19
		c-23.2,68.96-43.28,116.37-64.68,55.69c-6.62-18.78-65.5-43.57-96.76,2.18c-17.65,25.83,3.17,36.13-32.93,63.55
		c-17.42,13.23-23.78,1.68-39.19-14.11c-13.31-13.63-75.34,51.29-132.65,32.23"/>
</g>
</svg>
