<?xml version="1.0" encoding="UTF-8"?>
<svg id="Layer_1" data-name="Layer 1" xmlns="http://www.w3.org/2000/svg" viewBox="0 0 523.819172 661.851628">
  <defs>
    <style>
      .cls-1 {
        fill: #ede8d4;
      }

      .cls-2 {
        stroke: #ede8d4;
        stroke-miterlimit: 10;
        stroke-width: 12.610258px;
      }
    </style>
  </defs>
  <g>
    <path class="cls-2" d="m298.50657,627.277208c.026265,7.634389-2.769435,14.110833-8.387116,19.43254-5.627378,5.328195-12.248574,8.002164-19.873266,8.028463l-117.415219.40405-117.415219.40405c-7.63118.02623-14.189939-2.6882-19.679512-8.141753-5.489572-5.453554-8.252329-11.9902-8.278597-19.622985l-.576155-167.414667-.576155-167.414667c-.026246-7.626332,2.517967-13.768277,7.652046-18.434031,5.121143-4.659232,10.995245-7.00348,17.635276-7.026327l4.975166-.017126c6.633556-.022846,12.52365,2.280941,17.686458,6.90477,5.156355,4.630317,7.749258,10.754612,7.775505,18.380944l.528214,153.484373.528214,153.484373,103.484105-.356125,103.484105-.356125c7.287839-.025114,13.853367,2.773586,19.677119,8.389541,5.820561,5.624047,8.74877,12.244406,8.775034,19.870703Z"/>
    <path class="cls-2" d="m71.924623,235.029873c4.521426-4.487762,9.694754-7.015898,15.531263-7.577413.078576-.140619,4.304799-.293341,4.386732-.429599,5.864405-.578606,11.121733.840695,15.833607,4.187742,4.714168,3.348669,7.358611,7.944594,7.884069,13.864092,1.717429-1.486201,4.055556,57.429145,6.631259,57.198239,2.939239-.263483,5.701777,68.524325,7.833728,70.048685,1.371428.980581,2.735392,47.78246,3.782759,49.395206,1.552098,2.389976,3.03631,87.847412,3.898073,91.396205.623767,2.568701,73.690267,5.15519,73.963866,8.207258.048501.541128,13.706975,1.029692,13.742309,1.559135.247962,3.715345,86.406364,6.839021,85.974794,9.867754,5.968801.711726,11.333445,3.737529,16.022046,9.11902,4.711796,5.40814,6.951823,11.650644,6.767238,18.685481-.191805,7.065427-2.761866,13.133915-7.710707,18.20623-4.970675,5.110544-10.799572,7.971818-17.495342,8.586961-1.968103,3.415866-102.797283,5.854952-106.912492,6.223773-4.117755.3691-105.274851-.834608-107.819703-3.849633-6.799485-.499621-12.682359-3.32727-17.651534-8.479391-4.946944-5.117869-7.601319-11.175613-7.955233-18.182233-2.054047-3.995989-3.820831-148.858661-4.381723-155.115919-.565535-6.309055-.721187-151.354619.616922-155.668016.181655-7.011328,2.528807-12.757473,7.058063-17.243648l.000004.00007Z"/>
    <path class="cls-2" d="m130.060074,195.511263c3.921704-4.316292,8.394267-7.028297,13.427255-8.128499.157152-.28122,3.634432-.569555,3.798298-.84209,5.095249-1.134384,9.726106-.592332,13.980748,1.470697,4.278569,2.074643,6.967972,5.134594,7.992624,9.347258,3.434858-2.972384,7.864039,43.067821,13.015445,42.606045,5.878479-.526949,11.122404,55.354763,15.386306,58.403447,2.742857,1.961127,5.282956,40.9839,7.377673,44.20946,3.104196,4.779987,5.732245,76.791437,7.455786,83.889058,1.247535,5.137437,60.23625,10.610244,60.783412,16.714379.097019,1.082256,11.07413,2.11561,11.144797,3.174496.495906,7.43069,69.328657,14.034167,68.465517,20.091632,4.64978,1.44853,8.810298,4.710261,12.366939,9.8485,3.600102,5.200988,5.154842,11.056917,4.759442,17.500295-.40984,6.496395-2.754262,12.156892-7.034314,16.97985-4.31399,4.892893-9.350589,7.941403-15.117399,9.145529-3.93617,6.831696-88.179365,11.305786-96.409748,12.043532-8.235493.738235-93.134484-2.073231-98.22417-8.103385-5.967789-1.025471-11.174776-3.966341-15.623551-8.816995-4.40432-4.782184-6.950306-10.361061-7.631869-16.741446-4.108094-7.991979-7.065514-130.302689-8.187289-142.817135-1.13107-12.61811-.866218-135.294554,1.81-143.921365.389557-6.396342,2.539646-11.746668,6.464079-16.053281l.000017.000017Z"/>
    <path class="cls-2" d="m188.168062,156.296458c3.321986-4.14484,7.093784-7.040715,11.323243-8.679585.235736-.421838,2.964065-.84577,3.209847-1.254563,4.326093-1.690161,8.348452-2.028148,12.127907-1.246331,3.861353.798751,6.577317,2.324593,8.101188,4.830423,5.152295-4.458585,11.672531,28.706515,19.399631,28.013851,8.817727-.790415,16.543049,42.185166,22.938902,46.758175,4.114267,2.94169,7.830502,34.185357,10.972595,39.02368,4.656302,7.169962,8.428188,65.735462,11.013474,76.381911,1.871293,7.706137,46.782207,16.065332,47.602968,25.221535.145519,1.623384,8.441303,3.201563,8.547303,4.789858.74385,11.14607,52.250899,21.229347,50.956189,30.315511,3.330724,2.185335,6.283662,5.690982,8.711866,10.57798,2.485233,5.001823,3.357895,10.463155,2.751646,16.315108-.627909,5.927398-2.757018,11.171777-6.357887,15.753505-3.667839,4.666941-7.90157,7.911022-12.739457,9.704062-5.904273,10.247527-73.561447,16.756619-85.907004,17.863256-12.353249,1.107335-80.994125-3.311888-88.628654-12.357103-5.136094-1.551357-9.667194-4.605447-13.595569-9.154633-3.861684-4.446534-6.299288-9.546475-7.308506-15.300659-6.16214-11.988003-10.310189-111.746717-11.992851-130.518387-1.696614-18.927199-1.011258-119.234506,3.003079-132.174697.597459-5.781356,2.550476-10.735864,5.870108-14.862898h-.000017Z"/>
    <path class="cls-2" d="m246.191893,118.097463c2.72226-3.97337,5.793285-7.053132,9.219231-9.230663.314303-.562448,2.29369-1.121975,2.621422-1.667053,3.556955-2.24593,6.990086-3.488346,10.275047-3.963359,3.464-.500903,6.186678-.485407,8.209752.31358,6.869716-5.944768,15.481006,14.345192,25.783817,13.421657,11.756958-1.053881,21.963676,29.015587,30.49148,35.112937,5.485713,3.922253,10.378048,27.386814,14.567517,33.837917,6.208391,9.559956,11.124131,54.679469,14.571179,68.874747,2.495069,10.274856,33.328199,21.520403,34.422523,33.728673.194037,2.164512,5.808457,4.287481,5.949791,6.405219.991812,14.861415,35.173175,28.424493,33.446895,40.539389,2.011703,2.92214,3.747679,6.680073,5.056759,11.307495,1.361051,4.811134,1.560914,9.869428.74385,15.129921-.845979,5.358401-2.749902,10.195591-5.681494,14.52716-3.011746,4.450022-6.452586,7.880607-10.361515,10.26263-7.872375,13.663358-58.943529,22.207452-75.40426,23.682979-16.470986,1.476434-68.853749-4.550546-79.033138-16.610855-4.304398-2.077242-8.159612-5.244518-11.567595-9.492271-3.319074-4.110884-5.648289-8.731922-6.985133-13.859907-8.216187-15.983992-13.554864-93.190745-15.798431-118.219638-2.262141-25.236254-1.156289-103.17444,4.196148-120.428029.805361-5.166369,2.561324-9.72506,5.276119-13.672531h.000035Z"/>
    <path class="cls-2" d="m303.948474,83.096604c2.122551-3.801908,4.49282-7.06554,7.115236-9.781749.392888-.703058,1.623314-1.39819,2.032979-2.079535,2.787782-2.801708,5.619024-4.988203,8.422188-6.680396,3.052905-1.842944,5.79604-3.295416,8.318316-4.203264,8.587136-7.43096,19.289498-.016115,32.168021-1.170537,14.696189-1.317356,27.384303,15.845998,38.044076,23.467691,6.857124,4.902816,12.925612,20.58828,18.162421,28.652146,7.760515,11.949949,13.820074,43.623494,18.128901,61.367582,3.118828,12.843574,19.874156,26.975492,21.242079,42.235829.24252,2.705657,3.175612,5.3734,3.352279,8.02058,1.239774,18.57676,18.095452,35.619656,15.937602,50.763285.692681,3.658944,1.194814,7.672234,1.401687,12.036974.219116,4.62362-.236033,9.275666-1.263946,13.9447-1.064048,4.789369-2.731521,9.225962-5.005067,13.300815-2.343934,4.23987-5.003567,7.850226-7.983573,10.821163-9.840443,17.079223-44.325611,27.658285-64.901517,29.502703-20.588742,1.845569-56.713373-5.789204-69.437622-20.864573-3.472685-2.603127-6.65203-5.883589-9.539603-9.829909-2.776446-3.775199-4.997289-7.917336-6.661761-12.419119-10.270234-19.979982-16.799556-74.634756-19.603976-105.920872-2.827685-31.545309-1.30132-87.114392,5.389235-108.681378,1.013263-4.551374,2.572154-8.714247,4.682148-12.482156l-.000105.000017Z"/>
    <path class="cls-2" d="m515.919971,146.520805c-3.909313-43.612001-13.694959-79.883922-29.748223-104.603412-16.053264-24.71949-38.37418-37.886554-67.353997-35.288824s-48.603151,19.524628-60.004194,46.705101c-11.401043,27.180473-14.579794,64.614507-10.670447,108.226508,3.909313,43.612001,13.69482,79.882431,29.747979,104.600473,16.053159,24.718042,38.373901,37.883593,67.353753,35.285872,28.979817-2.597721,48.603291-19.523159,60.004438-46.70214,11.401182-27.178999,14.580038-64.611559,10.670726-108.223543l-.000035-.000035Z"/>
    <path class="cls-2" d="m515.919971,146.520805C508.101346,59.296811,476.777385,1.433114,418.817716,6.628565c-57.959669,5.195455-78.493266,67.707611-70.674641,154.931613,7.818625,87.224002,39.142028,145.081787,97.101697,139.886311,57.959669-5.195442,78.493789-67.701698,70.675164-154.925701l.000035.000017Z"/>
    <path class="cls-2" d="m515.919971,146.520805C508.101346,59.296811,476.777385,1.433114,418.817716,6.628565c-57.959669,5.195455-78.493266,67.707611-70.674641,154.931613,7.818625,87.224002,39.142028,145.081787,97.101697,139.886311,57.959669-5.195442,78.493789-67.701698,70.675164-154.925701l.000035.000017Z"/>
    <path class="cls-2" d="m515.919971,146.520805C508.101346,59.296811,476.777385,1.433114,418.817716,6.628565c-57.959669,5.195455-78.493266,67.707611-70.674641,154.931613,7.818625,87.224002,39.142028,145.081787,97.101697,139.886311,57.959669-5.195442,78.493789-67.701698,70.675164-154.925701l.000035.000017Z"/>
    <path class="cls-2" d="m515.919971,146.520805C508.101346,59.296811,476.777385,1.433114,418.817716,6.628565c-57.959669,5.195455-78.493266,67.707611-70.674641,154.931613,7.818625,87.224002,39.142028,145.081787,97.101697,139.886311,57.959669-5.195442,78.493789-67.701698,70.675164-154.925701l.000035.000017Z"/>
    <path class="cls-2" d="m515.919971,146.520805C508.101346,59.296811,476.777385,1.433114,418.817716,6.628565c-57.959669,5.195455-78.493266,67.707611-70.674641,154.931613,7.818625,87.224002,39.142028,145.081787,97.101697,139.886311,57.959669-5.195442,78.493789-67.701698,70.675164-154.925701l.000035.000017Z"/>
    <path class="cls-2" d="m515.919971,146.520805C508.101346,59.296811,476.777385,1.433114,418.817716,6.628565c-57.959669,5.195455-78.493266,67.707611-70.674641,154.931613,7.818625,87.224002,39.142028,145.081787,97.101697,139.886311,57.959669-5.195442,78.493789-67.701698,70.675164-154.925701l.000035.000017Z"/>
  </g>
  <g>
    <path class="cls-1" d="m467.855401,146.625393c-3.984828-44.454387-16.992512-74.210162-39.922991-72.154799-22.929642,2.055355-30.438428,33.650272-26.452798,78.104659,3.984828,44.454387,16.99171,74.207127,39.922153,72.151563,22.929642-2.055355,30.438428-33.647037,26.453635-78.101424Z"/>
    <path d="m307.959357,89.990683l39.746323-24.212684,1.623454-4.274689-1.578354-.270703c-32.352257-1.723925-39.349285,25.01113-40.066033,28.584261-.031008.154527.140741.257004.27461.173816Z"/>
    <path d="m288.790404,117.919976l1.987461-14.505561-1.522406-.245381-1.578371-.270703c-34.648301-1.846276-39.422027,25.40496-39.422027,25.40496l40.535326-10.383315h.000017Z"/>
    <path d="m452.01344,327.369076s14.063187-8.153089,17.781113-25.487041l-17.781113,25.487041Z"/>
    <path d="m330.091537,317.881793l-4.975175.017126s8.525398,14.159246,24.485777,20.461604l-19.510637-20.47873h.000035Z"/>
    <path d="m259.023468,360.214083l-3.316772.011406s3.860306,15.09682,8.05185,19.38186c0,0,8.31795,11.007422,24.79736,16.355917l-29.532421-35.749183h-.000017Z"/>
    <path d="m411.949744,388.499091s11.678269-3.117084,20.787383-19.403032l-21.529315,17.931376.741967,1.471621-.000035.000035Z"/>
    <path d="m197.174089,156.865159l32.750011,21.31946,1.861248-30.471965c-35.424468,3.317347-34.611259,9.152505-34.611259,9.152505Z"/>
    <path d="m369.17556,453.774555s18.415057-3.503066,24.519889-14.334309l-25.767755,8.687834,1.247866,5.646475Z"/>
    <path d="m198.799164,436.79317l9.329643,12.630457s9.04722,5.312743,10.706234,5.491259l1.068722-10.875436-24.071961-17.252472s1.932228,9.66116,2.967361,10.006193Z"/>
    <path d="m341.668445,516.057842s3.873247-.038717,9.190908-3.852005l-8.55393-4.305933-.636978,8.157938Z"/>
    <polygon points="137.033784 501.537309 141.43221 494.642758 135.409877 493.680838 137.033784 501.537309"/>
    <path d="m163.270911,520.239113l-.030869-8.967502-15.096593,3.982979s7.631407,4.273425,15.127462,4.984488v.000035Z"/>
    <path d="m137.105785,197.587564l35.21981,37.582719-.13952-40.538413c-24.591044-7.717595-35.080299,2.955694-35.08029,2.955694Z"/>
    <path d="m108.398355,242.304911l-19.20569-7.679472,24.967591,78.342288c3.807245-54.652908-5.761901-70.662834-5.761901-70.662834v.000017Z"/>
    <path d="m315.130679,537.247077c-2.304799-2.177836-5.411593-3.267207-8.572033-3.00348l-19.844996,1.65645-3.662397,6.64624,44.273326,14.343343c-.024172-7.024652-7.452665-15.162604-12.193899-19.642518v-.000035Z"/>
    <path d="m302.850347,582.282739s11.795884.696483,18.645997-7.926195l-18.659496,4.003105.013499,3.92309Z"/>
  </g>
</svg>